<?xml version="1.0" encoding="utf-8"?>
<!-- Generator: Adobe Illustrator 24.0.2, SVG Export Plug-In . SVG Version: 6.00 Build 0)  -->
<svg version="1.1" id="Layer_1" xmlns="http://www.w3.org/2000/svg" xmlns:xlink="http://www.w3.org/1999/xlink" x="0px" y="0px"
	 viewBox="0 0 2000 2000" style="enable-background:new 0 0 2000 2000;" xml:space="preserve">
<style type="text/css">
	.st0{fill:#1D1D1B;}
</style>
<g>
	<g>
		<g>
			<path class="st0" d="M1262.65,1255.26H737.35c-10.04,0-18.17-8.12-18.17-18.17s8.12-18.17,18.17-18.17h525.29
				c10.04,0,18.17,8.12,18.17,18.17S1272.69,1255.26,1262.65,1255.26z"/>
		</g>
		<g>
			<path class="st0" d="M1262.65,1018.18H737.35c-10.04,0-18.17-8.12-18.17-18.17c0-10.04,8.12-18.17,18.17-18.17h525.29
				c10.04,0,18.17,8.12,18.17,18.17C1280.81,1010.06,1272.69,1018.18,1262.65,1018.18z"/>
		</g>
		<g>
			<path class="st0" d="M1262.65,781.11H737.35c-10.04,0-18.17-8.12-18.17-18.17s8.12-18.17,18.17-18.17h525.29
				c10.04,0,18.17,8.12,18.17,18.17S1272.69,781.11,1262.65,781.11z"/>
		</g>
	</g>
	<g>
		<path class="st0" d="M1489.93,1592.6H510.09c-56.63,0-102.7-46.05-102.7-102.68V510.08c0-56.63,46.07-102.68,102.7-102.68h979.84
			c56.63,0,102.68,46.05,102.68,102.68v979.84C1592.61,1546.55,1546.56,1592.6,1489.93,1592.6z M510.09,443.73
			c-36.6,0-66.36,29.77-66.36,66.35v979.84c0,36.58,29.77,66.35,66.36,66.35h979.84c36.58,0,66.35-29.77,66.35-66.35V510.08
			c0-36.58-29.77-66.35-66.35-66.35H510.09z"/>
	</g>
</g>
</svg>
